<svg xmlns="http://www.w3.org/2000/svg"  xmlns:xlink="http://www.w3.org/1999/xlink"  viewBox="0 0 370 90.82931341173148" preserveAspectRatio="xMidYMid meet" class="css-1q2xkvy" id="ddhhdheb"><defs id="SvgjsDefs3313"></defs><g id="SvgjsG3314" featurekey="monogramFeature-0" transform="matrix(2.1629580839410316,0,0,2.1629580839410316,-7.7762665213620945,-38.94881520509291)" fill="#e1e236"><path d="M4.548 28.8 c-0.42 0 -0.78 -0.3 -0.9 -0.66 c-0.18 -0.54 0.12 -1.08 0.6 -1.2 l29.82 -8.88 c0.54 -0.18 1.02 0.12 1.2 0.6 c0.12 0.54 -0.12 1.08 -0.66 1.2 l-29.82 8.88 c-0.06 0.06 -0.18 0.06 -0.24 0.06 z M35.928 24.36 c0.12 0.54 -0.12 1.0199 -0.66 1.1999 l-10.74 3.0234 l0 30.457 c0 0.54 -0.42 0.96 -0.96 0.96 l-5.4 0 c-0.54 0 -0.96 -0.42 -0.96 -0.96 l0 -28.396 l-12.42 3.4962 c-0.06 0 -0.12 0.06 -0.24 0.06 c-0.42 0 -0.78 -0.3 -0.9 -0.72 c-0.12 -0.48 0.12 -0.96 0.66 -1.14 l30.48 -8.64 c0.48 -0.12 1.02 0.18 1.14 0.66 l0 0.000058594 z M22.608 29.124 l-3.5052 0.98634 l0.025195 0.18961 l0 27.84 l3.48 0 l0 -29.016 z"></path></g><g id="SvgjsG3315" featurekey="nameFeature-0" transform="matrix(2.488515078335333,0,0,2.488515078335333,88.20354040581604,-18.676541914853146)" fill="#ffffff"><path d="M4.7059 16.203 l-3.984 0 l0 -4.2513 l11.658 0 l0 4.2513 l-5.0802 0 l1.0963 0.80214 l0 22.968 l-3.6898 0 l0 -23.77 z M19.91641871657754 39.946524 l-3.6898 0 l0 -27.166 l-0.66845 -0.82888 l4.3583 0 l0 27.995 z M28.094932620320854 35.8021 l4.3048 0 l0 -19.545 l-5.4011 0 l1.0963 0.82888 l0 18.717 z M36.08973262032085 14.678999999999998 l0 22.701 c0 1.4973 -1.1765 2.6471 -2.6738 2.6471 l-9.0107 0 l0 -4.2246 l0 -22.941 l-0.66845 -0.82888 l9.6791 0 c1.4706 0 2.6738 1.2299 2.6738 2.6471 z M38.51938192513369 12.004999999999999 l4.2781 0 l2.9679 11.872 l2.9412 -11.872 l3.7968 0 l-4.8663 19.465 l-0.053476 0.24064 l0 8.3155 l-3.6631 0 l0 -8.3422 l-0.053476 -0.2139 l-4.6524 -18.636 z M60.09357165775401 23.824 l4.3048 0 l0 -7.6738 l-5.4011 0 l1.0963 0.82888 l0 6.8449 z M68.06187165775401 14.599 l0 10.802 c0 1.4973 -1.1497 2.6471 -2.6471 2.6471 l-0.50802 0 l3.1551 11.898 l-3.7968 0 l-3.1551 -11.898 l-2.1123 0 l1.0963 0.82888 l0 11.07 l-3.6898 0 l0 -23.797 l0 -3.3957 l-0.66845 -0.82888 l9.6791 0.026738 c1.4973 0 2.6471 1.1497 2.6471 2.6471 z M71.85490267379679 12.861 l-0.66845 -0.82888 l10.508 0 l0 4.2246 l-7.246 0 l1.0963 0.82888 l0 6.8182 l4.3316 0 l0 4.2513 l-5.4278 0 l1.0963 0.80214 l0 6.8449 l6.1497 0 l0 4.2246 l-9.8396 0 l0 -4.2246 l0 -7.6471 l0 -4.2513 l0 -11.043 z M89.39168609625669 31.604300000000002 l3.7701 0 l-1.8717 -15.348 z M84.65908609625669 40.053476 l3.3422 -27.193 l-0.66845 -0.80214 l7.139 0 l3.4492 27.995 l-3.7166 0 l-0.50802 -4.2246 l-5.9091 -0.026738 l0.9893 0.7754 l-0.42781 3.4759 l-3.6898 0 z M105.24399679144385 35.8021 l4.3048 0 l0 -19.545 l-5.4011 0 l1.0963 0.82888 l0 18.717 z M113.23879679144385 14.678999999999998 l0 22.701 c0 1.4973 -1.1765 2.6471 -2.6738 2.6471 l-9.0107 0 l0 -4.2246 l0 -22.941 l-0.66845 -0.82888 l9.6791 0 c1.4706 0 2.6738 1.2299 2.6738 2.6471 z"></path></g></svg>