<svg xmlns="http://www.w3.org/2000/svg"  xmlns:xlink="http://www.w3.org/1999/xlink"  class="css-rt6ihi" viewBox="0 0 140 181.65862682346295"><g transform="translate(-15.552533042724189, -77.89763041018583) scale(4.325916167882063)" fill="#e1e236"><path d="M4.548 28.8 c-0.42 0 -0.78 -0.3 -0.9 -0.66 c-0.18 -0.54 0.12 -1.08 0.6 -1.2 l29.82 -8.88 c0.54 -0.18 1.02 0.12 1.2 0.6 c0.12 0.54 -0.12 1.08 -0.66 1.2 l-29.82 8.88 c-0.06 0.06 -0.18 0.06 -0.24 0.06 z M35.928 24.36 c0.12 0.54 -0.12 1.0199 -0.66 1.1999 l-10.74 3.0234 l0 30.457 c0 0.54 -0.42 0.96 -0.96 0.96 l-5.4 0 c-0.54 0 -0.96 -0.42 -0.96 -0.96 l0 -28.396 l-12.42 3.4962 c-0.06 0 -0.12 0.06 -0.24 0.06 c-0.42 0 -0.78 -0.3 -0.9 -0.72 c-0.12 -0.48 0.12 -0.96 0.66 -1.14 l30.48 -8.64 c0.48 -0.12 1.02 0.18 1.14 0.66 l0 0.000058594 z M22.608 29.124 l-3.5052 0.98634 l0.025195 0.18961 l0 27.84 l3.48 0 l0 -29.016 z"></path></g></svg>